<mxfile host="app.diagrams.net" agent="Mozilla/5.0 (Windows NT 10.0; Win64; x64; rv:137.0) Gecko/20100101 Firefox/137.0" version="26.2.13">
  <diagram name="Page-1" id="M4zikVqhqEwIKT_qV2Aq">
    <mxGraphModel dx="918" dy="696" grid="1" gridSize="10" guides="1" tooltips="1" connect="1" arrows="1" fold="1" page="1" pageScale="1" pageWidth="850" pageHeight="1100" math="0" shadow="0">
      <root>
        <mxCell id="0" />
        <mxCell id="1" parent="0" />
        <mxCell id="rKoJERwkLrKyihK8HBNI-9" value="Клиент" style="swimlane;" vertex="1" parent="1">
          <mxGeometry x="10" y="10" width="200" height="510" as="geometry" />
        </mxCell>
        <mxCell id="rKoJERwkLrKyihK8HBNI-12" value="" style="edgeStyle=orthogonalEdgeStyle;rounded=0;orthogonalLoop=1;jettySize=auto;html=1;" edge="1" parent="rKoJERwkLrKyihK8HBNI-9" source="rKoJERwkLrKyihK8HBNI-10" target="rKoJERwkLrKyihK8HBNI-11">
          <mxGeometry relative="1" as="geometry" />
        </mxCell>
        <mxCell id="rKoJERwkLrKyihK8HBNI-10" value="" style="ellipse;whiteSpace=wrap;html=1;aspect=fixed;fillColor=#000000;" vertex="1" parent="rKoJERwkLrKyihK8HBNI-9">
          <mxGeometry x="85" y="50" width="30" height="30" as="geometry" />
        </mxCell>
        <mxCell id="rKoJERwkLrKyihK8HBNI-14" value="" style="edgeStyle=orthogonalEdgeStyle;rounded=0;orthogonalLoop=1;jettySize=auto;html=1;" edge="1" parent="rKoJERwkLrKyihK8HBNI-9" source="rKoJERwkLrKyihK8HBNI-11" target="rKoJERwkLrKyihK8HBNI-13">
          <mxGeometry relative="1" as="geometry" />
        </mxCell>
        <mxCell id="rKoJERwkLrKyihK8HBNI-11" value="Оформление заказа" style="rounded=1;whiteSpace=wrap;html=1;fillColor=none;" vertex="1" parent="rKoJERwkLrKyihK8HBNI-9">
          <mxGeometry x="40" y="100" width="120" height="30" as="geometry" />
        </mxCell>
        <mxCell id="rKoJERwkLrKyihK8HBNI-13" value="Оплата заказа" style="rounded=1;whiteSpace=wrap;html=1;fillColor=none;" vertex="1" parent="rKoJERwkLrKyihK8HBNI-9">
          <mxGeometry x="40" y="160" width="120" height="30" as="geometry" />
        </mxCell>
        <mxCell id="rKoJERwkLrKyihK8HBNI-43" style="edgeStyle=orthogonalEdgeStyle;rounded=0;orthogonalLoop=1;jettySize=auto;html=1;exitX=0.5;exitY=1;exitDx=0;exitDy=0;entryX=0.5;entryY=0;entryDx=0;entryDy=0;" edge="1" parent="rKoJERwkLrKyihK8HBNI-9" source="rKoJERwkLrKyihK8HBNI-39" target="rKoJERwkLrKyihK8HBNI-41">
          <mxGeometry relative="1" as="geometry" />
        </mxCell>
        <mxCell id="rKoJERwkLrKyihK8HBNI-39" value="Получение заказа" style="rounded=1;whiteSpace=wrap;html=1;" vertex="1" parent="rKoJERwkLrKyihK8HBNI-9">
          <mxGeometry x="40" y="430" width="120" height="20" as="geometry" />
        </mxCell>
        <mxCell id="rKoJERwkLrKyihK8HBNI-41" value="" style="ellipse;whiteSpace=wrap;html=1;aspect=fixed;fillColor=#000000;" vertex="1" parent="rKoJERwkLrKyihK8HBNI-9">
          <mxGeometry x="85" y="470" width="30" height="30" as="geometry" />
        </mxCell>
        <mxCell id="rKoJERwkLrKyihK8HBNI-15" value="Сайт аптеки" style="swimlane;startSize=23;" vertex="1" parent="1">
          <mxGeometry x="250" y="10" width="200" height="510" as="geometry" />
        </mxCell>
        <mxCell id="rKoJERwkLrKyihK8HBNI-18" value="" style="edgeStyle=orthogonalEdgeStyle;rounded=0;orthogonalLoop=1;jettySize=auto;html=1;" edge="1" parent="rKoJERwkLrKyihK8HBNI-15" source="rKoJERwkLrKyihK8HBNI-19" target="rKoJERwkLrKyihK8HBNI-20">
          <mxGeometry relative="1" as="geometry" />
        </mxCell>
        <mxCell id="rKoJERwkLrKyihK8HBNI-19" value="Добавление информации о заказе в базу данных" style="rounded=1;whiteSpace=wrap;html=1;fillColor=none;" vertex="1" parent="rKoJERwkLrKyihK8HBNI-15">
          <mxGeometry x="20" y="230" width="160" height="40" as="geometry" />
        </mxCell>
        <mxCell id="rKoJERwkLrKyihK8HBNI-20" value="Проверка на наличие препаратов в базе данных" style="rounded=1;whiteSpace=wrap;html=1;fillColor=none;" vertex="1" parent="rKoJERwkLrKyihK8HBNI-15">
          <mxGeometry x="25" y="290" width="150" height="40" as="geometry" />
        </mxCell>
        <mxCell id="rKoJERwkLrKyihK8HBNI-22" style="edgeStyle=orthogonalEdgeStyle;rounded=0;orthogonalLoop=1;jettySize=auto;html=1;entryX=0.5;entryY=0;entryDx=0;entryDy=0;" edge="1" parent="1" source="rKoJERwkLrKyihK8HBNI-13" target="rKoJERwkLrKyihK8HBNI-19">
          <mxGeometry relative="1" as="geometry">
            <Array as="points">
              <mxPoint x="110" y="220" />
              <mxPoint x="350" y="220" />
            </Array>
          </mxGeometry>
        </mxCell>
        <mxCell id="rKoJERwkLrKyihK8HBNI-23" value="Фармацевт" style="swimlane;startSize=23;" vertex="1" parent="1">
          <mxGeometry x="490" y="10" width="200" height="510" as="geometry" />
        </mxCell>
        <mxCell id="rKoJERwkLrKyihK8HBNI-25" value="Сборка заказа" style="rounded=1;whiteSpace=wrap;html=1;fillColor=none;" vertex="1" parent="rKoJERwkLrKyihK8HBNI-23">
          <mxGeometry x="50" y="350" width="100" height="20" as="geometry" />
        </mxCell>
        <mxCell id="rKoJERwkLrKyihK8HBNI-27" style="edgeStyle=orthogonalEdgeStyle;rounded=0;orthogonalLoop=1;jettySize=auto;html=1;" edge="1" parent="1" source="rKoJERwkLrKyihK8HBNI-20" target="rKoJERwkLrKyihK8HBNI-25">
          <mxGeometry relative="1" as="geometry">
            <Array as="points">
              <mxPoint x="350" y="350" />
              <mxPoint x="590" y="350" />
            </Array>
          </mxGeometry>
        </mxCell>
        <mxCell id="rKoJERwkLrKyihK8HBNI-28" value="Сайт аптеки" style="swimlane;startSize=23;" vertex="1" parent="1">
          <mxGeometry x="730" y="10" width="200" height="510" as="geometry" />
        </mxCell>
        <mxCell id="rKoJERwkLrKyihK8HBNI-30" value="Доставка заказа" style="rounded=1;whiteSpace=wrap;html=1;fillColor=none;" vertex="1" parent="rKoJERwkLrKyihK8HBNI-28">
          <mxGeometry x="40" y="390" width="120" height="20" as="geometry" />
        </mxCell>
        <mxCell id="rKoJERwkLrKyihK8HBNI-32" style="edgeStyle=orthogonalEdgeStyle;rounded=0;orthogonalLoop=1;jettySize=auto;html=1;" edge="1" parent="1" source="rKoJERwkLrKyihK8HBNI-25" target="rKoJERwkLrKyihK8HBNI-30">
          <mxGeometry relative="1" as="geometry">
            <Array as="points">
              <mxPoint x="590" y="390" />
              <mxPoint x="830" y="390" />
            </Array>
          </mxGeometry>
        </mxCell>
        <mxCell id="rKoJERwkLrKyihK8HBNI-40" style="edgeStyle=orthogonalEdgeStyle;rounded=0;orthogonalLoop=1;jettySize=auto;html=1;entryX=0.5;entryY=0;entryDx=0;entryDy=0;" edge="1" parent="1" source="rKoJERwkLrKyihK8HBNI-30" target="rKoJERwkLrKyihK8HBNI-39">
          <mxGeometry relative="1" as="geometry">
            <Array as="points">
              <mxPoint x="830" y="430" />
              <mxPoint x="110" y="430" />
            </Array>
          </mxGeometry>
        </mxCell>
      </root>
    </mxGraphModel>
  </diagram>
</mxfile>
